<?xml version="1.0" encoding="UTF-8" standalone="no"?>
<!DOCTYPE svg PUBLIC "-//W3C//DTD SVG 1.1//EN"
 "http://www.w3.org/Graphics/SVG/1.1/DTD/svg11.dtd">
<!-- Generated by graphviz version 2.26.3 (20100126.1600)
 -->
<!-- Title: testCluster Pages: 1 -->
<svg width="2728pt" height="665pt"
 viewBox="0.00 0.00 2728.00 665.00" xmlns="http://www.w3.org/2000/svg" xmlns:xlink="http://www.w3.org/1999/xlink">
<g id="graph1" class="graph" transform="scale(1 1) rotate(0) translate(4 661)">
<title>testCluster</title>
<polygon fill="white" stroke="white" points="-4,5 -4,-661 2725,-661 2725,5 -4,5"/>
<g id="graph2" class="cluster"><title>clusterWebClusters</title>
<polygon fill="none" stroke="#ccffff" stroke-width="2" points="385,-421 385,-649 449,-649 449,-421 385,-421"/>
<text text-anchor="middle" x="417" y="-637.8" font-family="Times,serif" font-size="8.00">Clusters</text>
</g>
<g id="graph3" class="cluster"><title>cluster_WEB&#45;INF/layouts</title>
<polygon fill="none" stroke="black" points="880,-598 880,-649 957,-649 957,-598 880,-598"/>
<text text-anchor="middle" x="918.5" y="-637.8" font-family="Times,serif" font-size="8.00">WEB&#45;INF/layouts</text>
</g>
<g id="graph4" class="cluster"><title>cluster_WEB&#45;INF/views/visits</title>
<polygon fill="none" stroke="black" points="935,-539 935,-590 1055,-590 1055,-539 935,-539"/>
<text text-anchor="middle" x="995" y="-578.8" font-family="Times,serif" font-size="8.00">WEB&#45;INF/views/visits</text>
</g>
<g id="graph6" class="cluster"><title>cluster_WEB&#45;INF/spring</title>
<polygon fill="none" stroke="black" points="965,-598 965,-649 1063,-649 1063,-598 965,-598"/>
<text text-anchor="middle" x="1014" y="-637.8" font-family="Times,serif" font-size="8.00">WEB&#45;INF/spring</text>
</g>
<g id="graph10" class="cluster"><title>cluster_WEB&#45;INF</title>
<polygon fill="none" stroke="black" points="938,-480 938,-531 998,-531 998,-480 938,-480"/>
<text text-anchor="middle" x="968" y="-519.8" font-family="Times,serif" font-size="8.00">WEB&#45;INF</text>
</g>
<g id="graph11" class="cluster"><title>cluster_com.springsource.petclinic.reference</title>
<polygon fill="none" stroke="black" points="929,-421 929,-472 1069,-472 1069,-421 929,-421"/>
<text text-anchor="middle" x="999" y="-460.8" font-family="Times,serif" font-size="8.00">com.springsource.petclinic.reference</text>
</g>
<g id="graph12" class="cluster"><title>cluster_WEB&#45;INF/classes/META&#45;INF/spring</title>
<polygon fill="none" stroke="black" points="818,-362 818,-413 1022,-413 1022,-362 818,-362"/>
<text text-anchor="middle" x="920" y="-401.8" font-family="Times,serif" font-size="8.00">WEB&#45;INF/classes/META&#45;INF/spring</text>
</g>
<g id="graph13" class="cluster"><title>cluster_META&#45;INF/maven/com.springsource.petclinic/petclinic</title>
<polygon fill="none" stroke="black" points="899,-303 899,-354 1102,-354 1102,-303 899,-303"/>
<text text-anchor="middle" x="1000.5" y="-342.8" font-family="Times,serif" font-size="8.00">META&#45;INF/maven/com.springsource.petclinic/petclinic</text>
</g>
<g id="graph14" class="cluster"><title>cluster_WEB&#45;INF/classes/META&#45;INF</title>
<polygon fill="none" stroke="black" points="846,-244 846,-295 1004,-295 1004,-244 846,-244"/>
<text text-anchor="middle" x="925" y="-283.8" font-family="Times,serif" font-size="8.00">WEB&#45;INF/classes/META&#45;INF</text>
</g>
<g id="graph15" class="cluster"><title>cluster_WEB&#45;INF/classes</title>
<polygon fill="none" stroke="black" points="921,-185 921,-236 1175,-236 1175,-185 921,-185"/>
<text text-anchor="middle" x="1048" y="-224.8" font-family="Times,serif" font-size="8.00">WEB&#45;INF/classes</text>
</g>
<g id="graph16" class="cluster"><title>cluster_WEB&#45;INF/i18n</title>
<polygon fill="none" stroke="black" points="914,-126 914,-177 1336,-177 1336,-126 914,-126"/>
<text text-anchor="middle" x="1125" y="-165.8" font-family="Times,serif" font-size="8.00">WEB&#45;INF/i18n</text>
</g>
<g id="graph17" class="cluster"><title>cluster_com.springsource.petclinic.web</title>
<polygon fill="none" stroke="black" points="134,-67 134,-118 2188,-118 2188,-67 134,-67"/>
<text text-anchor="middle" x="1161" y="-106.8" font-family="Times,serif" font-size="8.00">com.springsource.petclinic.web</text>
</g>
<g id="graph18" class="cluster"><title>cluster_com.springsource.petclinic.domain</title>
<polygon fill="none" stroke="black" points="8,-8 8,-59 2712,-59 2712,-8 8,-8"/>
<text text-anchor="middle" x="1360" y="-47.8" font-family="Times,serif" font-size="8.00">com.springsource.petclinic.domain</text>
</g>
<!-- Cluster_0 -->
<g id="node1" class="node"><title>Cluster_0</title>
<polygon fill="#adcbce" stroke="#adcbce" points="441,-623.5 393,-623.5 393,-606.5 441,-606.5 441,-623.5"/>
<text text-anchor="middle" x="417" y="-612.3" font-family="Times,serif" font-size="8.00">Cluster_0</text>
</g>
<!-- Cluster_1 -->
<g id="node2" class="node"><title>Cluster_1</title>
<polygon fill="#80a5a2" stroke="#80a5a2" points="441,-564.5 393,-564.5 393,-547.5 441,-547.5 441,-564.5"/>
<text text-anchor="middle" x="417" y="-553.3" font-family="Times,serif" font-size="8.00">Cluster_1</text>
</g>
<!-- Cluster_0&#45;&gt;Cluster_1 -->
<!-- Cluster_2 -->
<g id="node3" class="node"><title>Cluster_2</title>
<polygon fill="#9eecf9" stroke="#9eecf9" points="441,-505.5 393,-505.5 393,-488.5 441,-488.5 441,-505.5"/>
<text text-anchor="middle" x="417" y="-494.3" font-family="Times,serif" font-size="8.00">Cluster_2</text>
</g>
<!-- Cluster_1&#45;&gt;Cluster_2 -->
<!-- Cluster_3 -->
<g id="node4" class="node"><title>Cluster_3</title>
<polygon fill="#95f589" stroke="#95f589" points="441,-446.5 393,-446.5 393,-429.5 441,-429.5 441,-446.5"/>
<text text-anchor="middle" x="417" y="-435.3" font-family="Times,serif" font-size="8.00">Cluster_3</text>
</g>
<!-- Cluster_2&#45;&gt;Cluster_3 -->
<!-- alt.properties -->
<g id="node7" class="node"><title>alt.properties</title>
<polygon fill="#9eecf9" stroke="#9eecf9" points="1167,-210.5 1109,-210.5 1109,-193.5 1167,-193.5 1167,-210.5"/>
<text text-anchor="middle" x="1138" y="-199.3" font-family="Times,serif" font-size="8.00">alt.properties</text>
</g>
<!-- AbstractPerson$1 -->
<g id="node8" class="node"><title>AbstractPerson$1</title>
<polygon fill="#80a5a2" stroke="#80a5a2" points="2704,-33.5 2630,-33.5 2630,-16.5 2704,-16.5 2704,-33.5"/>
<text text-anchor="middle" x="2667" y="-22.3" font-family="Times,serif" font-size="8.00">AbstractPerson$1</text>
</g>
<!-- AbstractPerson -->
<g id="node9" class="node"><title>AbstractPerson</title>
<polygon fill="#80a5a2" stroke="#80a5a2" points="2612,-33.5 2546,-33.5 2546,-16.5 2612,-16.5 2612,-33.5"/>
<text text-anchor="middle" x="2579" y="-22.3" font-family="Times,serif" font-size="8.00">AbstractPerson</text>
</g>
<!-- AbstractPerson_Roo_Configurable -->
<g id="node10" class="node"><title>AbstractPerson_Roo_Configurable</title>
<polygon fill="#80a5a2" stroke="#80a5a2" points="2528,-33.5 2398,-33.5 2398,-16.5 2528,-16.5 2528,-33.5"/>
<text text-anchor="middle" x="2463" y="-22.3" font-family="Times,serif" font-size="8.00">AbstractPerson_Roo_Configurable</text>
</g>
<!-- AbstractPerson_Roo_Entity -->
<g id="node11" class="node"><title>AbstractPerson_Roo_Entity</title>
<polygon fill="#80a5a2" stroke="#80a5a2" points="2380,-33.5 2274,-33.5 2274,-16.5 2380,-16.5 2380,-33.5"/>
<text text-anchor="middle" x="2327" y="-22.3" font-family="Times,serif" font-size="8.00">AbstractPerson_Roo_Entity</text>
</g>
<!-- AbstractPerson_Roo_JavaBean -->
<g id="node12" class="node"><title>AbstractPerson_Roo_JavaBean</title>
<polygon fill="#adcbce" stroke="#adcbce" points="2256,-33.5 2138,-33.5 2138,-16.5 2256,-16.5 2256,-33.5"/>
<text text-anchor="middle" x="2197" y="-22.3" font-family="Times,serif" font-size="8.00">AbstractPerson_Roo_JavaBean</text>
</g>
<!-- AbstractPerson_Roo_ToString -->
<g id="node13" class="node"><title>AbstractPerson_Roo_ToString</title>
<polygon fill="#adcbce" stroke="#adcbce" points="2120,-33.5 2004,-33.5 2004,-16.5 2120,-16.5 2120,-33.5"/>
<text text-anchor="middle" x="2062" y="-22.3" font-family="Times,serif" font-size="8.00">AbstractPerson_Roo_ToString</text>
</g>
<!-- Owner -->
<g id="node14" class="node"><title>Owner</title>
<polygon fill="#80a5a2" stroke="#80a5a2" points="1986,-33.5 1948,-33.5 1948,-16.5 1986,-16.5 1986,-33.5"/>
<text text-anchor="middle" x="1967" y="-22.3" font-family="Times,serif" font-size="8.00">Owner</text>
</g>
<!-- Owner_Roo_Configurable -->
<g id="node15" class="node"><title>Owner_Roo_Configurable</title>
<polygon fill="#80a5a2" stroke="#80a5a2" points="1930,-33.5 1828,-33.5 1828,-16.5 1930,-16.5 1930,-33.5"/>
<text text-anchor="middle" x="1879" y="-22.3" font-family="Times,serif" font-size="8.00">Owner_Roo_Configurable</text>
</g>
<!-- Owner_Roo_Entity -->
<g id="node16" class="node"><title>Owner_Roo_Entity</title>
<polygon fill="#80a5a2" stroke="#80a5a2" points="1810,-33.5 1730,-33.5 1730,-16.5 1810,-16.5 1810,-33.5"/>
<text text-anchor="middle" x="1770" y="-22.3" font-family="Times,serif" font-size="8.00">Owner_Roo_Entity</text>
</g>
<!-- Owner_Roo_JavaBean -->
<g id="node17" class="node"><title>Owner_Roo_JavaBean</title>
<polygon fill="#adcbce" stroke="#adcbce" points="1712,-33.5 1622,-33.5 1622,-16.5 1712,-16.5 1712,-33.5"/>
<text text-anchor="middle" x="1667" y="-22.3" font-family="Times,serif" font-size="8.00">Owner_Roo_JavaBean</text>
</g>
<!-- Owner_Roo_ToString -->
<g id="node18" class="node"><title>Owner_Roo_ToString</title>
<polygon fill="#adcbce" stroke="#adcbce" points="1604,-33.5 1516,-33.5 1516,-16.5 1604,-16.5 1604,-33.5"/>
<text text-anchor="middle" x="1560" y="-22.3" font-family="Times,serif" font-size="8.00">Owner_Roo_ToString</text>
</g>
<!-- Pet -->
<g id="node19" class="node"><title>Pet</title>
<polygon fill="#80a5a2" stroke="#80a5a2" points="1498,-33.5 1472,-33.5 1472,-16.5 1498,-16.5 1498,-33.5"/>
<text text-anchor="middle" x="1485" y="-22.3" font-family="Times,serif" font-size="8.00">Pet</text>
</g>
<!-- Pet_Roo_Configurable -->
<g id="node20" class="node"><title>Pet_Roo_Configurable</title>
<polygon fill="#80a5a2" stroke="#80a5a2" points="1454,-33.5 1364,-33.5 1364,-16.5 1454,-16.5 1454,-33.5"/>
<text text-anchor="middle" x="1409" y="-22.3" font-family="Times,serif" font-size="8.00">Pet_Roo_Configurable</text>
</g>
<!-- Pet_Roo_Entity -->
<g id="node21" class="node"><title>Pet_Roo_Entity</title>
<polygon fill="#80a5a2" stroke="#80a5a2" points="1346,-33.5 1278,-33.5 1278,-16.5 1346,-16.5 1346,-33.5"/>
<text text-anchor="middle" x="1312" y="-22.3" font-family="Times,serif" font-size="8.00">Pet_Roo_Entity</text>
</g>
<!-- Pet_Roo_Finder -->
<g id="node22" class="node"><title>Pet_Roo_Finder</title>
<polygon fill="#80a5a2" stroke="#80a5a2" points="1260,-33.5 1190,-33.5 1190,-16.5 1260,-16.5 1260,-33.5"/>
<text text-anchor="middle" x="1225" y="-22.3" font-family="Times,serif" font-size="8.00">Pet_Roo_Finder</text>
</g>
<!-- Pet_Roo_JavaBean -->
<g id="node23" class="node"><title>Pet_Roo_JavaBean</title>
<polygon fill="#adcbce" stroke="#adcbce" points="1172,-33.5 1094,-33.5 1094,-16.5 1172,-16.5 1172,-33.5"/>
<text text-anchor="middle" x="1133" y="-22.3" font-family="Times,serif" font-size="8.00">Pet_Roo_JavaBean</text>
</g>
<!-- Pet_Roo_ToString -->
<g id="node24" class="node"><title>Pet_Roo_ToString</title>
<polygon fill="#adcbce" stroke="#adcbce" points="1076,-33.5 1000,-33.5 1000,-16.5 1076,-16.5 1076,-33.5"/>
<text text-anchor="middle" x="1038" y="-22.3" font-family="Times,serif" font-size="8.00">Pet_Roo_ToString</text>
</g>
<!-- Vet -->
<g id="node25" class="node"><title>Vet</title>
<polygon fill="#80a5a2" stroke="#80a5a2" points="982,-33.5 954,-33.5 954,-16.5 982,-16.5 982,-33.5"/>
<text text-anchor="middle" x="968" y="-22.3" font-family="Times,serif" font-size="8.00">Vet</text>
</g>
<!-- Vet_Roo_Configurable -->
<g id="node26" class="node"><title>Vet_Roo_Configurable</title>
<polygon fill="#80a5a2" stroke="#80a5a2" points="936,-33.5 844,-33.5 844,-16.5 936,-16.5 936,-33.5"/>
<text text-anchor="middle" x="890" y="-22.3" font-family="Times,serif" font-size="8.00">Vet_Roo_Configurable</text>
</g>
<!-- Vet_Roo_Entity -->
<g id="node27" class="node"><title>Vet_Roo_Entity</title>
<polygon fill="#80a5a2" stroke="#80a5a2" points="826,-33.5 758,-33.5 758,-16.5 826,-16.5 826,-33.5"/>
<text text-anchor="middle" x="792" y="-22.3" font-family="Times,serif" font-size="8.00">Vet_Roo_Entity</text>
</g>
<!-- Vet_Roo_JavaBean -->
<g id="node28" class="node"><title>Vet_Roo_JavaBean</title>
<polygon fill="#adcbce" stroke="#adcbce" points="740,-33.5 660,-33.5 660,-16.5 740,-16.5 740,-33.5"/>
<text text-anchor="middle" x="700" y="-22.3" font-family="Times,serif" font-size="8.00">Vet_Roo_JavaBean</text>
</g>
<!-- Vet_Roo_ToString -->
<g id="node29" class="node"><title>Vet_Roo_ToString</title>
<polygon fill="#adcbce" stroke="#adcbce" points="642,-33.5 564,-33.5 564,-16.5 642,-16.5 642,-33.5"/>
<text text-anchor="middle" x="603" y="-22.3" font-family="Times,serif" font-size="8.00">Vet_Roo_ToString</text>
</g>
<!-- Visit -->
<g id="node30" class="node"><title>Visit</title>
<polygon fill="#80a5a2" stroke="#80a5a2" points="546,-33.5 514,-33.5 514,-16.5 546,-16.5 546,-33.5"/>
<text text-anchor="middle" x="530" y="-22.3" font-family="Times,serif" font-size="8.00">Visit</text>
</g>
<!-- Visit_Roo_Configurable -->
<g id="node31" class="node"><title>Visit_Roo_Configurable</title>
<polygon fill="#80a5a2" stroke="#80a5a2" points="496,-33.5 400,-33.5 400,-16.5 496,-16.5 496,-33.5"/>
<text text-anchor="middle" x="448" y="-22.3" font-family="Times,serif" font-size="8.00">Visit_Roo_Configurable</text>
</g>
<!-- Visit_Roo_Entity -->
<g id="node32" class="node"><title>Visit_Roo_Entity</title>
<polygon fill="#80a5a2" stroke="#80a5a2" points="382,-33.5 310,-33.5 310,-16.5 382,-16.5 382,-33.5"/>
<text text-anchor="middle" x="346" y="-22.3" font-family="Times,serif" font-size="8.00">Visit_Roo_Entity</text>
</g>
<!-- Visit_Roo_Finder -->
<g id="node33" class="node"><title>Visit_Roo_Finder</title>
<polygon fill="#80a5a2" stroke="#80a5a2" points="292,-33.5 218,-33.5 218,-16.5 292,-16.5 292,-33.5"/>
<text text-anchor="middle" x="255" y="-22.3" font-family="Times,serif" font-size="8.00">Visit_Roo_Finder</text>
</g>
<!-- Visit_Roo_JavaBean -->
<g id="node34" class="node"><title>Visit_Roo_JavaBean</title>
<polygon fill="#adcbce" stroke="#adcbce" points="200,-33.5 116,-33.5 116,-16.5 200,-16.5 200,-33.5"/>
<text text-anchor="middle" x="158" y="-22.3" font-family="Times,serif" font-size="8.00">Visit_Roo_JavaBean</text>
</g>
<!-- Visit_Roo_ToString -->
<g id="node35" class="node"><title>Visit_Roo_ToString</title>
<polygon fill="#adcbce" stroke="#adcbce" points="98,-33.5 16,-33.5 16,-16.5 98,-16.5 98,-33.5"/>
<text text-anchor="middle" x="57" y="-22.3" font-family="Times,serif" font-size="8.00">Visit_Roo_ToString</text>
</g>
<!-- PetType -->
<g id="node36" class="node"><title>PetType</title>
<polygon fill="#adcbce" stroke="#adcbce" points="1057,-446.5 1013,-446.5 1013,-429.5 1057,-429.5 1057,-446.5"/>
<text text-anchor="middle" x="1035" y="-435.3" font-family="Times,serif" font-size="8.00">PetType</text>
</g>
<!-- Specialty -->
<g id="node37" class="node"><title>Specialty</title>
<polygon fill="#adcbce" stroke="#adcbce" points="991,-446.5 945,-446.5 945,-429.5 991,-429.5 991,-446.5"/>
<text text-anchor="middle" x="968" y="-435.3" font-family="Times,serif" font-size="8.00">Specialty</text>
</g>
<!-- applicationContext.xml -->
<g id="node55" class="node"><title>applicationContext.xml</title>
<polygon fill="#9eecf9" stroke="#9eecf9" points="1014,-387.5 922,-387.5 922,-370.5 1014,-370.5 1014,-387.5"/>
<text text-anchor="middle" x="968" y="-376.3" font-family="Times,serif" font-size="8.00">applicationContext.xml</text>
</g>
<!-- Specialty&#45;&gt;applicationContext.xml -->
<!-- ApplicationConversionServiceFactoryBean$1 -->
<g id="node38" class="node"><title>ApplicationConversionServiceFactoryBean$1</title>
<polygon fill="#80a5a2" stroke="#80a5a2" points="2180,-92.5 2014,-92.5 2014,-75.5 2180,-75.5 2180,-92.5"/>
<text text-anchor="middle" x="2097" y="-81.3" font-family="Times,serif" font-size="8.00">ApplicationConversionServiceFactoryBean$1</text>
</g>
<!-- ApplicationConversionServiceFactoryBean$2 -->
<g id="node39" class="node"><title>ApplicationConversionServiceFactoryBean$2</title>
<polygon fill="#80a5a2" stroke="#80a5a2" points="1996,-92.5 1828,-92.5 1828,-75.5 1996,-75.5 1996,-92.5"/>
<text text-anchor="middle" x="1912" y="-81.3" font-family="Times,serif" font-size="8.00">ApplicationConversionServiceFactoryBean$2</text>
</g>
<!-- ApplicationConversionServiceFactoryBean$3 -->
<g id="node40" class="node"><title>ApplicationConversionServiceFactoryBean$3</title>
<polygon fill="#80a5a2" stroke="#80a5a2" points="1810,-92.5 1644,-92.5 1644,-75.5 1810,-75.5 1810,-92.5"/>
<text text-anchor="middle" x="1727" y="-81.3" font-family="Times,serif" font-size="8.00">ApplicationConversionServiceFactoryBean$3</text>
</g>
<!-- ApplicationConversionServiceFactoryBean$4 -->
<g id="node41" class="node"><title>ApplicationConversionServiceFactoryBean$4</title>
<polygon fill="#80a5a2" stroke="#80a5a2" points="1626,-92.5 1460,-92.5 1460,-75.5 1626,-75.5 1626,-92.5"/>
<text text-anchor="middle" x="1543" y="-81.3" font-family="Times,serif" font-size="8.00">ApplicationConversionServiceFactoryBean$4</text>
</g>
<!-- ApplicationConversionServiceFactoryBean -->
<g id="node42" class="node"><title>ApplicationConversionServiceFactoryBean</title>
<polygon fill="#80a5a2" stroke="#80a5a2" points="1442,-92.5 1282,-92.5 1282,-75.5 1442,-75.5 1442,-92.5"/>
<text text-anchor="middle" x="1362" y="-81.3" font-family="Times,serif" font-size="8.00">ApplicationConversionServiceFactoryBean</text>
</g>
<!-- ApplicationConversionServiceFactoryBean_Roo_ConversionService -->
<g id="node43" class="node"><title>ApplicationConversionServiceFactoryBean_Roo_ConversionService</title>
<polygon fill="#95f589" stroke="#95f589" points="1264,-92.5 1022,-92.5 1022,-75.5 1264,-75.5 1264,-92.5"/>
<text text-anchor="middle" x="1143" y="-81.3" font-family="Times,serif" font-size="8.00">ApplicationConversionServiceFactoryBean_Roo_ConversionService</text>
</g>
<!-- OwnerController -->
<g id="node44" class="node"><title>OwnerController</title>
<polygon fill="#95f589" stroke="#95f589" points="1004,-92.5 932,-92.5 932,-75.5 1004,-75.5 1004,-92.5"/>
<text text-anchor="middle" x="968" y="-81.3" font-family="Times,serif" font-size="8.00">OwnerController</text>
</g>
<!-- OwnerController&#45;&gt;Vet -->
<!-- OwnerController_Roo_Controller -->
<g id="node45" class="node"><title>OwnerController_Roo_Controller</title>
<polygon fill="#95f589" stroke="#95f589" points="914,-92.5 788,-92.5 788,-75.5 914,-75.5 914,-92.5"/>
<text text-anchor="middle" x="851" y="-81.3" font-family="Times,serif" font-size="8.00">OwnerController_Roo_Controller</text>
</g>
<!-- PetController -->
<g id="node46" class="node"><title>PetController</title>
<polygon fill="#95f589" stroke="#95f589" points="770,-92.5 710,-92.5 710,-75.5 770,-75.5 770,-92.5"/>
<text text-anchor="middle" x="740" y="-81.3" font-family="Times,serif" font-size="8.00">PetController</text>
</g>
<!-- PetController_Roo_Controller -->
<g id="node47" class="node"><title>PetController_Roo_Controller</title>
<polygon fill="#95f589" stroke="#95f589" points="692,-92.5 578,-92.5 578,-75.5 692,-75.5 692,-92.5"/>
<text text-anchor="middle" x="635" y="-81.3" font-family="Times,serif" font-size="8.00">PetController_Roo_Controller</text>
</g>
<!-- VetController -->
<g id="node48" class="node"><title>VetController</title>
<polygon fill="#95f589" stroke="#95f589" points="560,-92.5 498,-92.5 498,-75.5 560,-75.5 560,-92.5"/>
<text text-anchor="middle" x="529" y="-81.3" font-family="Times,serif" font-size="8.00">VetController</text>
</g>
<!-- VetController_Roo_Controller -->
<g id="node49" class="node"><title>VetController_Roo_Controller</title>
<polygon fill="#95f589" stroke="#95f589" points="480,-92.5 364,-92.5 364,-75.5 480,-75.5 480,-92.5"/>
<text text-anchor="middle" x="422" y="-81.3" font-family="Times,serif" font-size="8.00">VetController_Roo_Controller</text>
</g>
<!-- VisitController -->
<g id="node50" class="node"><title>VisitController</title>
<polygon fill="#95f589" stroke="#95f589" points="346,-92.5 280,-92.5 280,-75.5 346,-75.5 346,-92.5"/>
<text text-anchor="middle" x="313" y="-81.3" font-family="Times,serif" font-size="8.00">VisitController</text>
</g>
<!-- VisitController_Roo_Controller -->
<g id="node51" class="node"><title>VisitController_Roo_Controller</title>
<polygon fill="#95f589" stroke="#95f589" points="262,-92.5 142,-92.5 142,-75.5 262,-75.5 262,-92.5"/>
<text text-anchor="middle" x="202" y="-81.3" font-family="Times,serif" font-size="8.00">VisitController_Roo_Controller</text>
</g>
<!-- log4j.properties -->
<g id="node52" class="node"><title>log4j.properties</title>
<polygon fill="#9eecf9" stroke="#9eecf9" points="1091,-210.5 1025,-210.5 1025,-193.5 1091,-193.5 1091,-210.5"/>
<text text-anchor="middle" x="1058" y="-199.3" font-family="Times,serif" font-size="8.00">log4j.properties</text>
</g>
<!-- aop&#45;ajc.xml -->
<g id="node53" class="node"><title>aop&#45;ajc.xml</title>
<polygon fill="#9eecf9" stroke="#9eecf9" points="996,-269.5 940,-269.5 940,-252.5 996,-252.5 996,-269.5"/>
<text text-anchor="middle" x="968" y="-258.3" font-family="Times,serif" font-size="8.00">aop&#45;ajc.xml</text>
</g>
<!-- standard.properties -->
<g id="node57" class="node"><title>standard.properties</title>
<polygon fill="#9eecf9" stroke="#9eecf9" points="1007,-210.5 929,-210.5 929,-193.5 1007,-193.5 1007,-210.5"/>
<text text-anchor="middle" x="968" y="-199.3" font-family="Times,serif" font-size="8.00">standard.properties</text>
</g>
<!-- aop&#45;ajc.xml&#45;&gt;standard.properties -->
<!-- persistence.xml -->
<g id="node54" class="node"><title>persistence.xml</title>
<polygon fill="#9eecf9" stroke="#9eecf9" points="922,-269.5 854,-269.5 854,-252.5 922,-252.5 922,-269.5"/>
<text text-anchor="middle" x="888" y="-258.3" font-family="Times,serif" font-size="8.00">persistence.xml</text>
</g>
<!-- pom.properties -->
<g id="node67" class="node"><title>pom.properties</title>
<polygon fill="#9eecf9" stroke="#9eecf9" points="1000,-328.5 936,-328.5 936,-311.5 1000,-311.5 1000,-328.5"/>
<text text-anchor="middle" x="968" y="-317.3" font-family="Times,serif" font-size="8.00">pom.properties</text>
</g>
<!-- applicationContext.xml&#45;&gt;pom.properties -->
<!-- database.properties -->
<g id="node56" class="node"><title>database.properties</title>
<polygon fill="#9eecf9" stroke="#9eecf9" points="904,-387.5 826,-387.5 826,-370.5 904,-370.5 904,-387.5"/>
<text text-anchor="middle" x="865" y="-376.3" font-family="Times,serif" font-size="8.00">database.properties</text>
</g>
<!-- messages_es.properties -->
<g id="node61" class="node"><title>messages_es.properties</title>
<polygon fill="#9eecf9" stroke="#9eecf9" points="1014,-151.5 922,-151.5 922,-134.5 1014,-134.5 1014,-151.5"/>
<text text-anchor="middle" x="968" y="-140.3" font-family="Times,serif" font-size="8.00">messages_es.properties</text>
</g>
<!-- standard.properties&#45;&gt;messages_es.properties -->
<!-- application.properties -->
<g id="node58" class="node"><title>application.properties</title>
<polygon fill="#9eecf9" stroke="#9eecf9" points="1328,-151.5 1242,-151.5 1242,-134.5 1328,-134.5 1328,-151.5"/>
<text text-anchor="middle" x="1285" y="-140.3" font-family="Times,serif" font-size="8.00">application.properties</text>
</g>
<!-- messages.properties -->
<g id="node59" class="node"><title>messages.properties</title>
<polygon fill="#9eecf9" stroke="#9eecf9" points="1224,-151.5 1142,-151.5 1142,-134.5 1224,-134.5 1224,-151.5"/>
<text text-anchor="middle" x="1183" y="-140.3" font-family="Times,serif" font-size="8.00">messages.properties</text>
</g>
<!-- messages_de.properties -->
<g id="node60" class="node"><title>messages_de.properties</title>
<polygon fill="#9eecf9" stroke="#9eecf9" points="1124,-151.5 1032,-151.5 1032,-134.5 1124,-134.5 1124,-151.5"/>
<text text-anchor="middle" x="1078" y="-140.3" font-family="Times,serif" font-size="8.00">messages_de.properties</text>
</g>
<!-- messages_es.properties&#45;&gt;OwnerController -->
<!-- layouts.xml -->
<g id="node62" class="node"><title>layouts.xml</title>
<polygon fill="#9eecf9" stroke="#9eecf9" points="949,-623.5 895,-623.5 895,-606.5 949,-606.5 949,-623.5"/>
<text text-anchor="middle" x="922" y="-612.3" font-family="Times,serif" font-size="8.00">layouts.xml</text>
</g>
<!-- views.xml -->
<g id="node64" class="node"><title>views.xml</title>
<polygon fill="#9eecf9" stroke="#9eecf9" points="993,-564.5 943,-564.5 943,-547.5 993,-547.5 993,-564.5"/>
<text text-anchor="middle" x="968" y="-553.3" font-family="Times,serif" font-size="8.00">views.xml</text>
</g>
<!-- layouts.xml&#45;&gt;views.xml -->
<!-- webmvc&#45;config.xml -->
<g id="node63" class="node"><title>webmvc&#45;config.xml</title>
<polygon fill="#9eecf9" stroke="#9eecf9" points="1055,-623.5 973,-623.5 973,-606.5 1055,-606.5 1055,-623.5"/>
<text text-anchor="middle" x="1014" y="-612.3" font-family="Times,serif" font-size="8.00">webmvc&#45;config.xml</text>
</g>
<!-- webmvc&#45;config.xml&#45;&gt;views.xml -->
<!-- views.xml&#45;&gt;webmvc&#45;config.xml -->
<!-- views.xml&#45;&gt;views.xml -->
<!-- views.xml&#45;&gt;views.xml -->
<!-- views.xml&#45;&gt;views.xml -->
<!-- web.xml -->
<g id="node65" class="node"><title>web.xml</title>
<polygon fill="#9eecf9" stroke="#9eecf9" points="990,-505.5 946,-505.5 946,-488.5 990,-488.5 990,-505.5"/>
<text text-anchor="middle" x="968" y="-494.3" font-family="Times,serif" font-size="8.00">web.xml</text>
</g>
<!-- views.xml&#45;&gt;web.xml -->
<!-- web.xml&#45;&gt;Specialty -->
<!-- pom.xml -->
<g id="node66" class="node"><title>pom.xml</title>
<polygon fill="#9eecf9" stroke="#9eecf9" points="1079,-328.5 1033,-328.5 1033,-311.5 1079,-311.5 1079,-328.5"/>
<text text-anchor="middle" x="1056" y="-317.3" font-family="Times,serif" font-size="8.00">pom.xml</text>
</g>
<!-- pom.properties&#45;&gt;aop&#45;ajc.xml -->
</g>
</svg>
